<svg width="48" height="48" viewBox="0 0 48 48" xmlns="http://www.w3.org/2000/svg">
  <!-- Outer circle -->
  <circle cx="24" cy="24" r="22"
    fill="var(--bg-panel)"
    stroke="var(--accent)"
    stroke-width="2.5" />

  <!-- Storm swirl -->
  <path d="M16 20 C18 14, 30 14, 32 20
           C34 26, 26 28, 24 32
           C22 36, 30 36, 32 30"
        stroke="var(--accent-strong)"
        stroke-width="2.2"
        fill="none"
        stroke-linecap="round"
        stroke-linejoin="round" />

  <!-- SG letters -->
  <text x="50%" y="54%"
        text-anchor="middle"
        font-size="16"
        font-weight="800"
        fill="var(--accent-strong)"
        font-family="Segoe UI, sans-serif">
    SG
  </text>
</svg>

<svg width="16" height="16" viewBox="0 0 24 24">
  <path d="M3 10L12 3l9 7v10a1 1 0 0 1-1 1h-5v-6H9v6H4a1 1 0 0 1-1-1V10z"
        fill="none"
        stroke="var(--accent-strong)"
        stroke-width="2"
        stroke-linecap="round"
        stroke-linejoin="round"/>
</svg>

<svg width="16" height="16" viewBox="0 0 24 24">
  <circle cx="12" cy="12" r="10"
          stroke="var(--accent)"
          stroke-width="2"
          fill="none"/>
  <path d="M9 9a3 3 0 1 1 3 3v2"
        stroke="var(--accent-strong)"
        stroke-width="2"
        fill="none"
        stroke-linecap="round"/>
  <circle cx="12" cy="17" r="1"
          fill="var(--accent-strong)"/>
</svg>

<svg width="16" height="16" viewBox="0 0 24 24">
  <circle cx="12" cy="12" r="10"
          stroke="var(--accent)"
          stroke-width="2"
          fill="none"/>
  <path d="M9 9a3 3 0 1 1 3 3v2"
        stroke="var(--accent-strong)"
        stroke-width="2"
        fill="none"
        stroke-linecap="round"/>
  <circle cx="12" cy="17" r="1"
          fill="var(--accent-strong)"/>
</svg>

<svg width="16" height="16" viewBox="0 0 24 24">
  <path d="M7 13l3-6h4l-3 6h4l-6 8 2-8H7z"
        fill="var(--accent-strong)"/>
</svg>

<svg width="16" height="16" viewBox="0 0 24 24">
  <rect x="3" y="8" width="18" height="10" rx="3"
        stroke="var(--accent)"
        stroke-width="2"
        fill="none"/>
  <circle cx="9" cy="13" r="1.5" fill="var(--accent-strong)"/>
  <circle cx="15" cy="11" r="1.5" fill="var(--accent-strong)"/>
  <circle cx="15" cy="15" r="1.5" fill="var(--accent-strong)"/>
</svg>

<svg width="16" height="16" viewBox="0 0 24 24">
  <path d="M5 4h10l4 4v12H5z"
        stroke="var(--accent)"
        stroke-width="2"
        fill="none"/>
  <path d="M9 12h6M9 16h4"
        stroke="var(--accent-strong)"
        stroke-width="2"
        stroke-linecap="round"/>
</svg>

<svg width="16" height="16" viewBox="0 0 24 24">
  <rect x="3" y="9" width="18" height="6" rx="3"
        stroke="var(--accent)"
        stroke-width="2"
        fill="none"/>
  <circle cx="12" cy="12" r="2"
          fill="var(--accent-strong)"/>
</svg>


<svg width="16" height="16" viewBox="0 0 24 24">
  <polygon points="12,3 2,21 22,21"
           stroke="var(--accent-strong)"
           stroke-width="2"
           fill="none"/>
  <line x1="12" y1="9" x2="12" y2="14"
        stroke="var(--accent-strong)"
        stroke-width="2"
        stroke-linecap="round"/>
  <circle cx="12" cy="17" r="1"
          fill="var(--accent-strong)"/>
</svg>

<svg width="16" height="16" viewBox="0 0 24 24">
  <circle cx="8" cy="8" r="3"
          stroke="var(--accent)"
          stroke-width="2"
          fill="none"/>
  <circle cx="16" cy="8" r="3"
          stroke="var(--accent)"
          stroke-width="2"
          fill="none"/>
  <path d="M4 20c1-4 5-4 6-4s5 0 6 4"
        stroke="var(--accent-strong)"
        stroke-width="2"
        fill="none"
        stroke-linecap="round"/>
</svg>

<svg width="16" height="16" viewBox="0 0 24 24">
  <circle cx="12" cy="12" r="9"
          stroke="var(--accent)"
          stroke-width="2"
          fill="none"/>
  <path d="M12 6v6l4 2"
        stroke="var(--accent-strong)"
        stroke-width="2"
        stroke-linecap="round"/>
</svg>


<svg width="16" height="16" viewBox="0 0 24 24">
  <rect x="4" y="4" width="16" height="16" rx="2"
        stroke="var(--accent)"
        stroke-width="2"
        fill="none"/>
  <line x1="8" y1="9" x2="16" y2="9"
        stroke="var(--accent-strong)"
        stroke-width="2"/>
  <line x1="8" y1="13" x2="16" y2="13"
        stroke="var(--accent-strong)"
        stroke-width="2"/>
</svg>

<svg width="16" height="16" viewBox="0 0 24 24">
  <circle cx="5" cy="12" r="2" fill="var(--accent-strong)"/>
  <circle cx="12" cy="12" r="2" fill="var(--accent-strong)"/>
  <circle cx="19" cy="12" r="2" fill="var(--accent-strong)"/>
</svg>